<mxfile host="app.diagrams.net" modified="2022-08-01T10:03:47.859Z" agent="5.0 (Macintosh; Intel Mac OS X 10_15_7) AppleWebKit/537.36 (KHTML, like Gecko) Chrome/103.0.0.0 Safari/537.36" etag="dAb0kefw8sk0el7fK8kI" version="20.2.1" type="github">
  <diagram id="0d_ut0WmNH7dI-ibBs3p" name="第 1 页">
    <mxGraphModel dx="1878" dy="1049" grid="1" gridSize="10" guides="1" tooltips="1" connect="1" arrows="1" fold="1" page="1" pageScale="1" pageWidth="827" pageHeight="1169" math="0" shadow="0">
      <root>
        <mxCell id="0" />
        <mxCell id="1" parent="0" />
        <mxCell id="P1bSGM74OCymADJrnlDI-2" value="数仓" style="strokeWidth=2;html=1;shape=mxgraph.flowchart.multi-document;whiteSpace=wrap;" vertex="1" parent="1">
          <mxGeometry x="155.5" y="100" width="88" height="60" as="geometry" />
        </mxCell>
        <mxCell id="P1bSGM74OCymADJrnlDI-3" value="" style="endArrow=classic;html=1;rounded=0;exitX=1;exitY=0.5;exitDx=0;exitDy=0;exitPerimeter=0;" edge="1" parent="1" source="P1bSGM74OCymADJrnlDI-2">
          <mxGeometry width="50" height="50" relative="1" as="geometry">
            <mxPoint x="235.5" y="160" as="sourcePoint" />
            <mxPoint x="285.5" y="130" as="targetPoint" />
          </mxGeometry>
        </mxCell>
        <mxCell id="P1bSGM74OCymADJrnlDI-13" style="edgeStyle=orthogonalEdgeStyle;rounded=0;orthogonalLoop=1;jettySize=auto;html=1;exitX=1;exitY=0.75;exitDx=0;exitDy=0;entryX=0;entryY=0.5;entryDx=0;entryDy=0;" edge="1" parent="1" source="P1bSGM74OCymADJrnlDI-4" target="P1bSGM74OCymADJrnlDI-10">
          <mxGeometry relative="1" as="geometry" />
        </mxCell>
        <mxCell id="P1bSGM74OCymADJrnlDI-4" value="智能&lt;br&gt;权益&lt;br&gt;在线&lt;br&gt;服务" style="shape=process;whiteSpace=wrap;html=1;backgroundOutline=1;rounded=1;fillColor=#f8cecc;strokeColor=#b85450;" vertex="1" parent="1">
          <mxGeometry x="495.5" y="60" width="56" height="140" as="geometry" />
        </mxCell>
        <mxCell id="P1bSGM74OCymADJrnlDI-7" style="edgeStyle=orthogonalEdgeStyle;rounded=0;orthogonalLoop=1;jettySize=auto;html=1;exitX=1;exitY=0.5;exitDx=0;exitDy=0;entryX=0;entryY=0.5;entryDx=0;entryDy=0;" edge="1" parent="1" source="P1bSGM74OCymADJrnlDI-5" target="P1bSGM74OCymADJrnlDI-6">
          <mxGeometry relative="1" as="geometry" />
        </mxCell>
        <mxCell id="P1bSGM74OCymADJrnlDI-5" value="智能&lt;br&gt;权益&lt;br&gt;离线&lt;br&gt;服务" style="shape=process;whiteSpace=wrap;html=1;backgroundOutline=1;rounded=1;fillColor=#f5f5f5;strokeColor=#666666;fontColor=#333333;" vertex="1" parent="1">
          <mxGeometry x="285.5" y="60" width="56" height="140" as="geometry" />
        </mxCell>
        <mxCell id="P1bSGM74OCymADJrnlDI-8" style="edgeStyle=orthogonalEdgeStyle;rounded=0;orthogonalLoop=1;jettySize=auto;html=1;exitX=1;exitY=0.5;exitDx=0;exitDy=0;entryX=0;entryY=0.5;entryDx=0;entryDy=0;" edge="1" parent="1" source="P1bSGM74OCymADJrnlDI-6" target="P1bSGM74OCymADJrnlDI-4">
          <mxGeometry relative="1" as="geometry" />
        </mxCell>
        <mxCell id="P1bSGM74OCymADJrnlDI-6" value="Redis&lt;br&gt;权益&lt;br&gt;分配&lt;br&gt;结果" style="ellipse;whiteSpace=wrap;html=1;rounded=1;" vertex="1" parent="1">
          <mxGeometry x="388.5" y="65" width="61.5" height="130" as="geometry" />
        </mxCell>
        <mxCell id="P1bSGM74OCymADJrnlDI-10" value="出参：分配结果" style="rounded=1;whiteSpace=wrap;html=1;" vertex="1" parent="1">
          <mxGeometry x="605.5" y="150" width="100" height="30" as="geometry" />
        </mxCell>
        <mxCell id="P1bSGM74OCymADJrnlDI-12" style="edgeStyle=orthogonalEdgeStyle;rounded=0;orthogonalLoop=1;jettySize=auto;html=1;exitX=0;exitY=0.5;exitDx=0;exitDy=0;entryX=1;entryY=0.25;entryDx=0;entryDy=0;" edge="1" parent="1" source="P1bSGM74OCymADJrnlDI-11" target="P1bSGM74OCymADJrnlDI-4">
          <mxGeometry relative="1" as="geometry" />
        </mxCell>
        <mxCell id="P1bSGM74OCymADJrnlDI-11" value="入参：用户ID" style="rounded=1;whiteSpace=wrap;html=1;" vertex="1" parent="1">
          <mxGeometry x="605.5" y="80" width="100" height="30" as="geometry" />
        </mxCell>
        <mxCell id="P1bSGM74OCymADJrnlDI-119" style="edgeStyle=orthogonalEdgeStyle;rounded=0;orthogonalLoop=1;jettySize=auto;html=1;exitX=0.25;exitY=0;exitDx=0;exitDy=0;strokeWidth=1;" edge="1" parent="1" source="P1bSGM74OCymADJrnlDI-15" target="P1bSGM74OCymADJrnlDI-116">
          <mxGeometry relative="1" as="geometry" />
        </mxCell>
        <mxCell id="P1bSGM74OCymADJrnlDI-137" style="edgeStyle=orthogonalEdgeStyle;rounded=0;orthogonalLoop=1;jettySize=auto;html=1;exitX=1;exitY=0.75;exitDx=0;exitDy=0;entryX=0;entryY=0.5;entryDx=0;entryDy=0;strokeWidth=1;" edge="1" parent="1" source="P1bSGM74OCymADJrnlDI-15" target="P1bSGM74OCymADJrnlDI-42">
          <mxGeometry relative="1" as="geometry" />
        </mxCell>
        <mxCell id="P1bSGM74OCymADJrnlDI-138" style="edgeStyle=orthogonalEdgeStyle;rounded=0;orthogonalLoop=1;jettySize=auto;html=1;entryX=0.5;entryY=1;entryDx=0;entryDy=0;strokeWidth=1;" edge="1" parent="1" source="P1bSGM74OCymADJrnlDI-15" target="P1bSGM74OCymADJrnlDI-23">
          <mxGeometry relative="1" as="geometry">
            <Array as="points">
              <mxPoint x="150" y="1030" />
              <mxPoint x="770" y="1030" />
              <mxPoint x="770" y="764" />
            </Array>
          </mxGeometry>
        </mxCell>
        <mxCell id="P1bSGM74OCymADJrnlDI-15" value="" style="swimlane;startSize=0;rounded=1;arcSize=38;" vertex="1" parent="1">
          <mxGeometry x="60" y="825" width="190" height="180" as="geometry">
            <mxRectangle x="120" y="490" width="50" height="40" as="alternateBounds" />
          </mxGeometry>
        </mxCell>
        <mxCell id="P1bSGM74OCymADJrnlDI-17" value="用户画像" style="shape=document;whiteSpace=wrap;html=1;boundedLbl=1;rounded=1;" vertex="1" parent="P1bSGM74OCymADJrnlDI-15">
          <mxGeometry x="14" y="30" width="76" height="40" as="geometry" />
        </mxCell>
        <mxCell id="P1bSGM74OCymADJrnlDI-18" value="订单日志" style="shape=document;whiteSpace=wrap;html=1;boundedLbl=1;rounded=1;" vertex="1" parent="P1bSGM74OCymADJrnlDI-15">
          <mxGeometry x="100" y="30" width="76" height="40" as="geometry" />
        </mxCell>
        <mxCell id="P1bSGM74OCymADJrnlDI-19" value="发券日志" style="shape=document;whiteSpace=wrap;html=1;boundedLbl=1;rounded=1;" vertex="1" parent="P1bSGM74OCymADJrnlDI-15">
          <mxGeometry x="14" y="80" width="76" height="40" as="geometry" />
        </mxCell>
        <mxCell id="P1bSGM74OCymADJrnlDI-20" value="流量分发" style="shape=document;whiteSpace=wrap;html=1;boundedLbl=1;rounded=1;" vertex="1" parent="P1bSGM74OCymADJrnlDI-15">
          <mxGeometry x="100" y="80" width="76" height="40" as="geometry" />
        </mxCell>
        <mxCell id="P1bSGM74OCymADJrnlDI-21" value="用户行为日志" style="shape=document;whiteSpace=wrap;html=1;boundedLbl=1;rounded=1;" vertex="1" parent="P1bSGM74OCymADJrnlDI-15">
          <mxGeometry x="14" y="135" width="76" height="40" as="geometry" />
        </mxCell>
        <mxCell id="P1bSGM74OCymADJrnlDI-22" value="..." style="text;html=1;align=center;verticalAlign=middle;resizable=0;points=[];autosize=1;strokeColor=none;fillColor=none;" vertex="1" parent="P1bSGM74OCymADJrnlDI-15">
          <mxGeometry x="123" y="135" width="30" height="30" as="geometry" />
        </mxCell>
        <mxCell id="P1bSGM74OCymADJrnlDI-23" value="收益离线监控" style="rounded=1;whiteSpace=wrap;html=1;" vertex="1" parent="1">
          <mxGeometry x="715.5" y="719" width="107" height="45" as="geometry" />
        </mxCell>
        <mxCell id="P1bSGM74OCymADJrnlDI-131" style="edgeStyle=orthogonalEdgeStyle;rounded=0;orthogonalLoop=1;jettySize=auto;html=1;entryX=0;entryY=0.5;entryDx=0;entryDy=0;strokeWidth=1;" edge="1" parent="1" source="P1bSGM74OCymADJrnlDI-40" target="P1bSGM74OCymADJrnlDI-24">
          <mxGeometry relative="1" as="geometry" />
        </mxCell>
        <mxCell id="P1bSGM74OCymADJrnlDI-40" value="预测样本构建" style="rounded=1;whiteSpace=wrap;html=1;" vertex="1" parent="1">
          <mxGeometry x="128" y="719" width="107" height="45" as="geometry" />
        </mxCell>
        <mxCell id="P1bSGM74OCymADJrnlDI-134" style="edgeStyle=orthogonalEdgeStyle;rounded=0;orthogonalLoop=1;jettySize=auto;html=1;entryX=0.5;entryY=1;entryDx=0;entryDy=0;strokeWidth=1;" edge="1" parent="1" source="P1bSGM74OCymADJrnlDI-42" target="P1bSGM74OCymADJrnlDI-45">
          <mxGeometry relative="1" as="geometry" />
        </mxCell>
        <mxCell id="P1bSGM74OCymADJrnlDI-133" style="edgeStyle=orthogonalEdgeStyle;rounded=0;orthogonalLoop=1;jettySize=auto;html=1;entryX=0.5;entryY=1;entryDx=0;entryDy=0;strokeWidth=1;" edge="1" parent="1" source="P1bSGM74OCymADJrnlDI-45" target="P1bSGM74OCymADJrnlDI-24">
          <mxGeometry relative="1" as="geometry" />
        </mxCell>
        <mxCell id="P1bSGM74OCymADJrnlDI-45" value="增益预估模型" style="shape=datastore;whiteSpace=wrap;html=1;rounded=1;glass=0;sketch=0;strokeWidth=1;" vertex="1" parent="1">
          <mxGeometry x="384" y="824" width="79" height="60" as="geometry" />
        </mxCell>
        <mxCell id="P1bSGM74OCymADJrnlDI-158" style="edgeStyle=orthogonalEdgeStyle;rounded=0;orthogonalLoop=1;jettySize=auto;html=1;exitX=0.5;exitY=1;exitDx=0;exitDy=0;entryX=0.704;entryY=-0.003;entryDx=0;entryDy=0;entryPerimeter=0;strokeWidth=1;" edge="1" parent="1" source="P1bSGM74OCymADJrnlDI-110" target="P1bSGM74OCymADJrnlDI-30">
          <mxGeometry relative="1" as="geometry" />
        </mxCell>
        <mxCell id="P1bSGM74OCymADJrnlDI-110" value="活动目标设定" style="rounded=1;whiteSpace=wrap;html=1;glass=0;sketch=0;strokeWidth=1;" vertex="1" parent="1">
          <mxGeometry x="568" y="519" width="120" height="48" as="geometry" />
        </mxCell>
        <mxCell id="P1bSGM74OCymADJrnlDI-111" value="" style="shape=loopLimit;whiteSpace=wrap;html=1;rounded=0;sketch=0;size=20;" vertex="1" parent="1">
          <mxGeometry x="72.07999999999998" y="429" width="76.92" height="90" as="geometry" />
        </mxCell>
        <mxCell id="P1bSGM74OCymADJrnlDI-122" style="edgeStyle=orthogonalEdgeStyle;rounded=0;orthogonalLoop=1;jettySize=auto;html=1;strokeWidth=1;exitX=1;exitY=0.5;exitDx=0;exitDy=0;" edge="1" parent="1" source="P1bSGM74OCymADJrnlDI-111" target="P1bSGM74OCymADJrnlDI-40">
          <mxGeometry relative="1" as="geometry">
            <mxPoint x="130" y="520" as="sourcePoint" />
            <Array as="points">
              <mxPoint x="182" y="474" />
            </Array>
          </mxGeometry>
        </mxCell>
        <mxCell id="P1bSGM74OCymADJrnlDI-113" value="标签系统" style="text;html=1;strokeColor=none;fillColor=none;align=center;verticalAlign=middle;whiteSpace=wrap;rounded=0;sketch=0;" vertex="1" parent="1">
          <mxGeometry x="69" y="444" width="80" height="30" as="geometry" />
        </mxCell>
        <mxCell id="P1bSGM74OCymADJrnlDI-114" value="" style="endArrow=none;html=1;rounded=0;exitX=-0.01;exitY=0.572;exitDx=0;exitDy=0;exitPerimeter=0;" edge="1" parent="1">
          <mxGeometry width="50" height="50" relative="1" as="geometry">
            <mxPoint x="71.79" y="486.9000000000001" as="sourcePoint" />
            <mxPoint x="149.29" y="486.9000000000001" as="targetPoint" />
          </mxGeometry>
        </mxCell>
        <mxCell id="P1bSGM74OCymADJrnlDI-116" value="用户分层" style="text;html=1;align=center;verticalAlign=middle;resizable=0;points=[];autosize=1;strokeColor=none;fillColor=none;" vertex="1" parent="1">
          <mxGeometry x="73.5" y="486" width="70" height="30" as="geometry" />
        </mxCell>
        <mxCell id="P1bSGM74OCymADJrnlDI-121" value="" style="endArrow=classic;html=1;rounded=0;strokeWidth=1;entryX=0.5;entryY=1;entryDx=0;entryDy=0;exitX=0.638;exitY=0.005;exitDx=0;exitDy=0;exitPerimeter=0;" edge="1" parent="1" source="P1bSGM74OCymADJrnlDI-15" target="P1bSGM74OCymADJrnlDI-40">
          <mxGeometry width="50" height="50" relative="1" as="geometry">
            <mxPoint x="252" y="820" as="sourcePoint" />
            <mxPoint x="302" y="790" as="targetPoint" />
          </mxGeometry>
        </mxCell>
        <mxCell id="P1bSGM74OCymADJrnlDI-125" value="" style="group" vertex="1" connectable="0" parent="1">
          <mxGeometry x="363" y="711.5" width="120" height="60" as="geometry" />
        </mxCell>
        <mxCell id="P1bSGM74OCymADJrnlDI-24" value="" style="shape=loopLimit;whiteSpace=wrap;html=1;rounded=0;sketch=0;size=20;" vertex="1" parent="P1bSGM74OCymADJrnlDI-125">
          <mxGeometry width="120" height="60" as="geometry" />
        </mxCell>
        <mxCell id="P1bSGM74OCymADJrnlDI-26" value="" style="endArrow=none;html=1;rounded=0;entryX=0.997;entryY=0.558;entryDx=0;entryDy=0;exitX=-0.001;exitY=0.573;exitDx=0;exitDy=0;exitPerimeter=0;entryPerimeter=0;" edge="1" parent="P1bSGM74OCymADJrnlDI-125">
          <mxGeometry width="50" height="50" relative="1" as="geometry">
            <mxPoint x="-0.12000000000011823" y="37.37999999999988" as="sourcePoint" />
            <mxPoint x="119.6400000000001" y="36.48000000000002" as="targetPoint" />
          </mxGeometry>
        </mxCell>
        <mxCell id="P1bSGM74OCymADJrnlDI-27" value="预估增益" style="text;html=1;strokeColor=none;fillColor=none;align=center;verticalAlign=middle;whiteSpace=wrap;rounded=0;sketch=0;" vertex="1" parent="P1bSGM74OCymADJrnlDI-125">
          <mxGeometry x="30" y="40" width="60" height="15" as="geometry" />
        </mxCell>
        <mxCell id="P1bSGM74OCymADJrnlDI-28" value="增益预估系统" style="text;html=1;strokeColor=none;fillColor=none;align=center;verticalAlign=middle;whiteSpace=wrap;rounded=0;sketch=0;" vertex="1" parent="P1bSGM74OCymADJrnlDI-125">
          <mxGeometry x="24.25" y="11" width="77" height="15" as="geometry" />
        </mxCell>
        <mxCell id="P1bSGM74OCymADJrnlDI-127" value="" style="group" vertex="1" connectable="0" parent="1">
          <mxGeometry x="537.08" y="710" width="125.84" height="67" as="geometry" />
        </mxCell>
        <mxCell id="P1bSGM74OCymADJrnlDI-30" value="" style="shape=loopLimit;whiteSpace=wrap;html=1;rounded=0;sketch=0;size=20;container=0;" vertex="1" parent="P1bSGM74OCymADJrnlDI-127">
          <mxGeometry x="4.999999999999995" width="119.99999999999987" height="61.84615384615384" as="geometry" />
        </mxCell>
        <mxCell id="P1bSGM74OCymADJrnlDI-32" value="" style="endArrow=none;html=1;rounded=0;entryX=0.997;entryY=0.558;entryDx=0;entryDy=0;exitX=-0.01;exitY=0.572;exitDx=0;exitDy=0;exitPerimeter=0;entryPerimeter=0;" edge="1" parent="P1bSGM74OCymADJrnlDI-127">
          <mxGeometry width="50" height="50" relative="1" as="geometry">
            <mxPoint x="4.999999999999995" y="39.086769230769185" as="sourcePoint" />
            <mxPoint x="125.84" y="38.220923076923114" as="targetPoint" />
          </mxGeometry>
        </mxCell>
        <mxCell id="P1bSGM74OCymADJrnlDI-33" value="" style="endArrow=none;html=1;rounded=0;" edge="1" parent="P1bSGM74OCymADJrnlDI-127" target="P1bSGM74OCymADJrnlDI-30">
          <mxGeometry width="50" height="50" relative="1" as="geometry">
            <mxPoint x="64.94999999999997" y="61.84615384615384" as="sourcePoint" />
            <mxPoint x="64.99999999999993" y="30.92307692307692" as="targetPoint" />
          </mxGeometry>
        </mxCell>
        <mxCell id="P1bSGM74OCymADJrnlDI-34" value="" style="endArrow=none;html=1;rounded=0;exitX=-0.001;exitY=0.837;exitDx=0;exitDy=0;exitPerimeter=0;" edge="1" parent="P1bSGM74OCymADJrnlDI-127" source="P1bSGM74OCymADJrnlDI-35">
          <mxGeometry width="50" height="50" relative="1" as="geometry">
            <mxPoint x="64.99999999999993" y="68.03076923076922" as="sourcePoint" />
            <mxPoint x="64.7799999999999" y="39.169230769230765" as="targetPoint" />
          </mxGeometry>
        </mxCell>
        <mxCell id="P1bSGM74OCymADJrnlDI-35" value="优化求解" style="text;html=1;strokeColor=none;fillColor=none;align=center;verticalAlign=middle;whiteSpace=wrap;rounded=0;sketch=0;container=0;" vertex="1" parent="P1bSGM74OCymADJrnlDI-127">
          <mxGeometry x="64.99999999999993" y="36.07692307692307" width="59.999999999999936" height="30.92307692307692" as="geometry" />
        </mxCell>
        <mxCell id="P1bSGM74OCymADJrnlDI-37" value="权益分配系统" style="text;html=1;strokeColor=none;fillColor=none;align=center;verticalAlign=middle;whiteSpace=wrap;rounded=0;sketch=0;container=0;" vertex="1" parent="P1bSGM74OCymADJrnlDI-127">
          <mxGeometry x="28.999999999999968" y="4.123076923076923" width="79.99999999999991" height="30.92307692307692" as="geometry" />
        </mxCell>
        <mxCell id="P1bSGM74OCymADJrnlDI-38" value="人工干预" style="text;html=1;align=center;verticalAlign=middle;resizable=0;points=[];autosize=1;strokeColor=none;fillColor=none;container=0;" vertex="1" parent="P1bSGM74OCymADJrnlDI-127">
          <mxGeometry y="36.07692307692307" width="70" height="30" as="geometry" />
        </mxCell>
        <mxCell id="P1bSGM74OCymADJrnlDI-128" style="edgeStyle=orthogonalEdgeStyle;rounded=0;orthogonalLoop=1;jettySize=auto;html=1;exitX=1;exitY=0.5;exitDx=0;exitDy=0;entryX=0;entryY=0.5;entryDx=0;entryDy=0;strokeWidth=1;" edge="1" parent="1" source="P1bSGM74OCymADJrnlDI-24" target="P1bSGM74OCymADJrnlDI-30">
          <mxGeometry relative="1" as="geometry" />
        </mxCell>
        <mxCell id="P1bSGM74OCymADJrnlDI-132" style="edgeStyle=orthogonalEdgeStyle;rounded=0;orthogonalLoop=1;jettySize=auto;html=1;exitX=1;exitY=0.5;exitDx=0;exitDy=0;entryX=0;entryY=0.5;entryDx=0;entryDy=0;strokeWidth=1;" edge="1" parent="1" source="P1bSGM74OCymADJrnlDI-30" target="P1bSGM74OCymADJrnlDI-23">
          <mxGeometry relative="1" as="geometry" />
        </mxCell>
        <mxCell id="P1bSGM74OCymADJrnlDI-136" value="" style="group" vertex="1" connectable="0" parent="1">
          <mxGeometry x="320" y="930" width="209" height="60" as="geometry" />
        </mxCell>
        <mxCell id="P1bSGM74OCymADJrnlDI-42" value="模型训练" style="shape=process;whiteSpace=wrap;html=1;backgroundOutline=1;rounded=1;glass=0;sketch=0;strokeWidth=1;size=0.3333333333333333;" vertex="1" parent="P1bSGM74OCymADJrnlDI-136">
          <mxGeometry width="209" height="60" as="geometry" />
        </mxCell>
        <mxCell id="P1bSGM74OCymADJrnlDI-43" value="特征工程" style="text;html=1;align=center;verticalAlign=middle;resizable=0;points=[];autosize=1;strokeColor=none;fillColor=none;" vertex="1" parent="P1bSGM74OCymADJrnlDI-136">
          <mxGeometry x="4" y="15" width="70" height="30" as="geometry" />
        </mxCell>
        <mxCell id="P1bSGM74OCymADJrnlDI-44" value="离线评估" style="text;html=1;align=center;verticalAlign=middle;resizable=0;points=[];autosize=1;strokeColor=none;fillColor=none;" vertex="1" parent="P1bSGM74OCymADJrnlDI-136">
          <mxGeometry x="139" y="15" width="70" height="30" as="geometry" />
        </mxCell>
        <mxCell id="P1bSGM74OCymADJrnlDI-145" value="" style="endArrow=classic;html=1;rounded=0;strokeWidth=1;entryX=0.543;entryY=0.933;entryDx=0;entryDy=0;entryPerimeter=0;exitX=0.5;exitY=0;exitDx=0;exitDy=0;" edge="1" parent="1" source="P1bSGM74OCymADJrnlDI-72" target="P1bSGM74OCymADJrnlDI-90">
          <mxGeometry width="50" height="50" relative="1" as="geometry">
            <mxPoint x="128" y="530" as="sourcePoint" />
            <mxPoint x="318" y="550" as="targetPoint" />
          </mxGeometry>
        </mxCell>
        <mxCell id="P1bSGM74OCymADJrnlDI-74" value="" style="shape=loopLimit;whiteSpace=wrap;html=1;rounded=0;sketch=0;size=20;container=0;fillColor=#f8cecc;strokeColor=#b85450;" vertex="1" parent="1">
          <mxGeometry x="278.58000000000004" y="380" width="94.42" height="120" as="geometry" />
        </mxCell>
        <mxCell id="P1bSGM74OCymADJrnlDI-75" value="" style="endArrow=none;html=1;rounded=0;exitX=-0.01;exitY=0.572;exitDx=0;exitDy=0;exitPerimeter=0;fillColor=#f8cecc;strokeColor=#b85450;" edge="1" parent="1">
          <mxGeometry width="50" height="50" relative="1" as="geometry">
            <mxPoint x="278" y="440" as="sourcePoint" />
            <mxPoint x="373" y="440" as="targetPoint" />
          </mxGeometry>
        </mxCell>
        <mxCell id="P1bSGM74OCymADJrnlDI-79" value="天降红包" style="text;html=1;strokeColor=none;fillColor=#f8cecc;align=center;verticalAlign=middle;whiteSpace=wrap;rounded=0;sketch=0;container=0;" vertex="1" parent="1">
          <mxGeometry x="286" y="399" width="80" height="30" as="geometry" />
        </mxCell>
        <mxCell id="P1bSGM74OCymADJrnlDI-88" value="" style="endArrow=none;html=1;rounded=0;exitX=-0.01;exitY=0.572;exitDx=0;exitDy=0;exitPerimeter=0;fillColor=#f8cecc;strokeColor=#b85450;" edge="1" parent="1">
          <mxGeometry width="50" height="50" relative="1" as="geometry">
            <mxPoint x="278" y="473" as="sourcePoint" />
            <mxPoint x="373" y="473" as="targetPoint" />
          </mxGeometry>
        </mxCell>
        <mxCell id="P1bSGM74OCymADJrnlDI-89" value="首页弹窗" style="text;html=1;align=center;verticalAlign=middle;resizable=0;points=[];autosize=1;strokeColor=none;fillColor=none;container=0;" vertex="1" parent="1">
          <mxGeometry x="290" y="443" width="70" height="30" as="geometry" />
        </mxCell>
        <mxCell id="P1bSGM74OCymADJrnlDI-90" value="访问触达" style="text;html=1;align=center;verticalAlign=middle;resizable=0;points=[];autosize=1;strokeColor=none;fillColor=none;container=0;" vertex="1" parent="1">
          <mxGeometry x="290" y="472" width="70" height="30" as="geometry" />
        </mxCell>
        <mxCell id="P1bSGM74OCymADJrnlDI-149" value="" style="endArrow=classic;html=1;rounded=0;strokeWidth=1;exitX=0.5;exitY=0;exitDx=0;exitDy=0;entryX=0.5;entryY=0.9;entryDx=0;entryDy=0;entryPerimeter=0;" edge="1" parent="1" source="P1bSGM74OCymADJrnlDI-72" target="P1bSGM74OCymADJrnlDI-108">
          <mxGeometry width="50" height="50" relative="1" as="geometry">
            <mxPoint x="428" y="570" as="sourcePoint" />
            <mxPoint x="478" y="520" as="targetPoint" />
          </mxGeometry>
        </mxCell>
        <mxCell id="P1bSGM74OCymADJrnlDI-67" value="" style="shape=loopLimit;whiteSpace=wrap;html=1;rounded=0;sketch=0;size=20;container=0;" vertex="1" parent="1">
          <mxGeometry x="361.58" y="562" width="120" height="60" as="geometry" />
        </mxCell>
        <mxCell id="P1bSGM74OCymADJrnlDI-68" value="" style="endArrow=none;html=1;rounded=0;entryX=0.997;entryY=0.558;entryDx=0;entryDy=0;exitX=-0.01;exitY=0.572;exitDx=0;exitDy=0;exitPerimeter=0;entryPerimeter=0;" edge="1" parent="1">
          <mxGeometry width="50" height="50" relative="1" as="geometry">
            <mxPoint x="361.58" y="594.9200000000001" as="sourcePoint" />
            <mxPoint x="482.42000000000013" y="594.0799999999999" as="targetPoint" />
          </mxGeometry>
        </mxCell>
        <mxCell id="P1bSGM74OCymADJrnlDI-69" value="" style="endArrow=none;html=1;rounded=0;" edge="1" parent="1">
          <mxGeometry width="50" height="50" relative="1" as="geometry">
            <mxPoint x="422.5299999999998" y="622" as="sourcePoint" />
            <mxPoint x="422.52999999999975" y="622" as="targetPoint" />
          </mxGeometry>
        </mxCell>
        <mxCell id="P1bSGM74OCymADJrnlDI-70" value="" style="endArrow=none;html=1;rounded=0;exitX=0.5;exitY=1;exitDx=0;exitDy=0;" edge="1" parent="1" source="P1bSGM74OCymADJrnlDI-67">
          <mxGeometry width="50" height="50" relative="1" as="geometry">
            <mxPoint x="421.35999999999996" y="614" as="sourcePoint" />
            <mxPoint x="421.35999999999973" y="594" as="targetPoint" />
          </mxGeometry>
        </mxCell>
        <mxCell id="P1bSGM74OCymADJrnlDI-71" value="预算控制" style="text;html=1;strokeColor=none;fillColor=none;align=center;verticalAlign=middle;whiteSpace=wrap;rounded=0;sketch=0;container=0;" vertex="1" parent="1">
          <mxGeometry x="421.58" y="594" width="60" height="30" as="geometry" />
        </mxCell>
        <mxCell id="P1bSGM74OCymADJrnlDI-72" value="权益分配系统" style="text;html=1;strokeColor=none;fillColor=none;align=center;verticalAlign=middle;whiteSpace=wrap;rounded=0;sketch=0;container=0;" vertex="1" parent="1">
          <mxGeometry x="385.58" y="562" width="80" height="30" as="geometry" />
        </mxCell>
        <mxCell id="P1bSGM74OCymADJrnlDI-73" value="发券决策" style="text;html=1;align=center;verticalAlign=middle;resizable=0;points=[];autosize=1;strokeColor=none;fillColor=none;container=0;" vertex="1" parent="1">
          <mxGeometry x="356.58" y="594" width="70" height="30" as="geometry" />
        </mxCell>
        <mxCell id="P1bSGM74OCymADJrnlDI-156" style="edgeStyle=orthogonalEdgeStyle;rounded=0;orthogonalLoop=1;jettySize=auto;html=1;strokeWidth=1;entryX=0.927;entryY=0.951;entryDx=0;entryDy=0;entryPerimeter=0;" edge="1" parent="1" source="P1bSGM74OCymADJrnlDI-30" target="P1bSGM74OCymADJrnlDI-73">
          <mxGeometry relative="1" as="geometry">
            <mxPoint x="422" y="620" as="targetPoint" />
            <Array as="points">
              <mxPoint x="602" y="670" />
              <mxPoint x="422" y="670" />
            </Array>
          </mxGeometry>
        </mxCell>
        <mxCell id="P1bSGM74OCymADJrnlDI-103" value="" style="shape=loopLimit;whiteSpace=wrap;html=1;rounded=0;sketch=0;size=20;container=0;fillColor=#f8cecc;strokeColor=#b85450;" vertex="1" parent="1">
          <mxGeometry x="470.5800000000001" y="380" width="94.42" height="120" as="geometry" />
        </mxCell>
        <mxCell id="P1bSGM74OCymADJrnlDI-104" value="" style="endArrow=none;html=1;rounded=0;exitX=-0.01;exitY=0.572;exitDx=0;exitDy=0;exitPerimeter=0;fillColor=#f8cecc;strokeColor=#b85450;" edge="1" parent="1">
          <mxGeometry width="50" height="50" relative="1" as="geometry">
            <mxPoint x="470.00000000000006" y="441" as="sourcePoint" />
            <mxPoint x="565" y="441" as="targetPoint" />
          </mxGeometry>
        </mxCell>
        <mxCell id="P1bSGM74OCymADJrnlDI-105" value="主动绑定" style="text;html=1;strokeColor=none;fillColor=none;align=center;verticalAlign=middle;whiteSpace=wrap;rounded=0;sketch=0;container=0;" vertex="1" parent="1">
          <mxGeometry x="478.00000000000006" y="399" width="80" height="30" as="geometry" />
        </mxCell>
        <mxCell id="P1bSGM74OCymADJrnlDI-106" value="" style="endArrow=none;html=1;rounded=0;exitX=-0.01;exitY=0.572;exitDx=0;exitDy=0;exitPerimeter=0;fillColor=#f8cecc;strokeColor=#b85450;" edge="1" parent="1">
          <mxGeometry width="50" height="50" relative="1" as="geometry">
            <mxPoint x="470.00000000000006" y="473" as="sourcePoint" />
            <mxPoint x="565" y="473" as="targetPoint" />
          </mxGeometry>
        </mxCell>
        <mxCell id="P1bSGM74OCymADJrnlDI-107" value="离线直绑" style="text;html=1;align=center;verticalAlign=middle;resizable=0;points=[];autosize=1;strokeColor=none;fillColor=none;container=0;" vertex="1" parent="1">
          <mxGeometry x="482.00000000000006" y="444" width="70" height="30" as="geometry" />
        </mxCell>
        <mxCell id="P1bSGM74OCymADJrnlDI-108" value="事件触发绑定" style="text;html=1;align=center;verticalAlign=middle;resizable=0;points=[];autosize=1;strokeColor=none;fillColor=none;container=0;" vertex="1" parent="1">
          <mxGeometry x="468.00000000000006" y="473" width="100" height="30" as="geometry" />
        </mxCell>
      </root>
    </mxGraphModel>
  </diagram>
</mxfile>
